# xmcd
#
# Track frame offsets: 
#        150
#        15021
#        32615
#        48619
#        65266
#        81295
#        102814
#        113217
#        128217
#        150507
#        166453
#        185137
#
# Disc length: 2607 seconds
#
# Revision: 0
# Processed by: cddbd v1.5.2PL0 Copyright (c) Steve Scherf et al.
# Submitted via: ExactAudioCopy v0.99pb3
#
DISCID=910a2d0c
DTITLE=Travis Haddix - Milk and Bread
DYEAR=2001
DGENRE=Blues
TTITLE0=Problem With That
TTITLE1=Milk and Bread
TTITLE2=Your Finger Prints
TTITLE3=Why Wait
TTITLE4=Getting Together Again
TTITLE5=Do Wrong Right
TTITLE6=Catch You In The Truth
TTITLE7=Bread, Butter and Blues
TTITLE8=Hazeleyes
TTITLE9=Ode To The Bag Lady
TTITLE10=Same Old View
TTITLE11=Count This Up
EXTD=
EXTT0=
EXTT1=
EXTT2=
EXTT3=
EXTT4=
EXTT5=
EXTT6=
EXTT7=
EXTT8=
EXTT9=
EXTT10=
EXTT11=
PLAYORDER=
